PathFileType	4	(X/Y/Z)	G:\GRF\jawan data\CompiledGRF\03. Mohit Kumar\0231~ac~Walking 03_markers.trc
DataRate	CameraRate	NumFrames	NumMarkers	Units	OrigDataRate	OrigDataStartFrame	OrigNumFrames
100.000000	100.000000	4	18	mm	100.000000	505	1010
Frame#	Time	c7			r should			l should			sacrum			r asis			r bar 1			r knee 1			r bar 2			r mall			r heel			r met			l asis			l bar 1			l knee 1			l bar 2			l mall			l heel			l met			
		X1	Y1	Z1	X2	Y2	Z2	X3	Y3	Z3	X4	Y4	Z4	X5	Y5	Z5	X6	Y6	Z6	X7	Y7	Z7	X8	Y8	Z8	X9	Y9	Z9	X10	Y10	Z10	X11	Y11	Z11	X12	Y12	Z12	X13	Y13	Z13	X14	Y14	Z14	X15	Y15	Z15	X16	Y16	Z16	X17	Y17	Z17	X18	Y18	Z18	

506	5.05	-160.4782562255859	1493.7060546875	242.6322479248047	-55.74177169799805	1439.812622070313	404.5885925292969	-90.73076629638672	1440.891967773438	67.36294555664063	-175.1761474609375	1028.12109375	222.3335418701172	-9.932012557983398	992.5617065429688	372.5390319824219	-181.7713775634766	605.5224609375	419.73681640625	-184.0559539794922	515.7720947265625	370.2267150878906	-376.9073181152344	251.2873687744141	386.8691711425781	-427.1901550292969	128.3207855224609	325.9244079589844	-492.4304504394531	119.473518371582	275.7604675292969	-308.98681640625	40.74895477294922	322.4992370605469	22.7920036315918	1010.419616699219	125.5152969360352	79.30870056152344	597.8906860351563	54.38872146606445	114.0502471923828	523.7150268554688	113.2330932617188	136.0006408691406	242.9359741210938	68.35030364990234	168.0913848876953	76.10939788818359	138.7718963623047	111.2304382324219	34.44281387329102	190.1067810058594	310.9054870605469	53.96623229980469	163.9530639648438	
507	5.06	-150.5302429199219	1494.951904296875	240.8507232666016	-45.22993469238281	1441.737426757813	402.6483764648438	-80.96994781494141	1442.164672851563	65.54414367675781	-164.8865966796875	1030.181396484375	220.9954071044922	0.7001538872718811	993.6531982421875	370.7696838378906	-170.8100128173828	606.6685791015625	418.4477844238281	-172.1173858642578	516.5230102539063	369.9855041503906	-370.1335144042969	255.7632293701172	387.0958862304688	-422.3612365722656	133.271240234375	326.4091491699219	-487.8329467773438	126.9175262451172	276.1672668457031	-308.2709045410156	40.94843673706055	322.268798828125	33.06298828125	1012.296447753906	123.6324310302734	89.44384765625	599.1808471679688	53.51236724853516	123.1603012084961	524.1919555664063	112.8745498657227	139.3770294189453	242.6367645263672	68.48245239257813	169.3665924072266	75.93103790283203	138.8988037109375	112.2833023071289	34.82224273681641	189.9816436767578	312.0008239746094	51.98096466064453	164.6490631103516	
508	5.07	-140.6781311035156	1496.397583007813	239.1249694824219	-34.86788940429688	1443.8857421875	400.7146301269531	-71.39143371582031	1443.671875	63.71283721923828	-154.6376647949219	1032.392944335938	219.5437774658203	11.17008209228516	995.0172729492188	368.8164367675781	-159.2331237792969	607.5902099609375	417.1085205078125	-159.6664733886719	517.1142578125	369.8462219238281	-363.0953063964844	260.6414489746094	387.1885986328125	-416.9691772460938	138.3314208984375	326.9451904296875	-481.9970703125	134.4147338867188	276.3993530273438	-306.9976806640625	41.2372932434082	321.8712768554688	43.30279541015625	1014.254577636719	121.6158905029297	99.0595703125	600.378662109375	52.68314361572266	131.3558807373047	524.5440063476563	112.2267150878906	142.6556396484375	243.3809967041016	68.22893524169922	170.8076324462891	75.78295135498047	139.0525360107422	112.8409042358398	35.42106246948242	189.8478240966797	313.4667663574219	50.32586288452148	165.21728515625	
509	5.08	-130.8931732177734	1497.824951171875	237.4275665283203	-24.15598487854004	1446.09716796875	398.7569274902344	-61.89860916137695	1445.43603515625	61.82889175415039	-144.26416015625	1034.546142578125	218.1882629394531	21.30964088439941	996.4024047851563	366.8920593261719	-146.9867095947266	608.3798217773438	415.9363708496094	-146.6853332519531	517.6463012695313	369.8441162109375	-355.4033508300781	265.6891174316406	387.1591796875	-411.1343688964844	143.6868743896484	327.3258056640625	-475.3280334472656	142.4007720947266	276.4700012207031	-305.4807434082031	41.6236686706543	321.3862915039063	53.43974304199219	1016.069641113281	119.5763092041016	107.7978668212891	601.2128295898438	51.55955123901367	138.9675140380859	525.1452026367188	111.5032272338867	146.8187561035156	244.0390319824219	67.87641143798828	171.92138671875	75.63966369628906	139.1150207519531	113.5630722045898	35.63896179199219	189.6537170410156	314.4630737304688	49.19626617431641	165.3865203857422	
